<svg xmlns="http://www.w3.org/2000/svg" xmlns:xlink="http://www.w3.org/1999/xlink" version="1.1" width="256" height="256" viewBox="0 0 256 256" xml:space="preserve">
<desc>Created with Fabric.js 1.7.22</desc>
<defs>
</defs>
<g transform="translate(128 128) scale(0.79 0.79)" style="">
	<g style="stroke: none; stroke-width: 0; stroke-dasharray: none; stroke-linecap: butt; stroke-linejoin: miter; stroke-miterlimit: 10; fill: none; fill-rule: nonzero; opacity: 1;" transform="translate(-160.65 -160.65000000000003) scale(3.57 3.57)" >
	<path d="M 45 0 C 20.147 0 0 20.147 0 45 c 0 24.853 20.147 45 45 45 s 45 -20.147 45 -45 C 90 20.147 69.853 0 45 0 z" style="stroke: none; stroke-width: 1; stroke-dasharray: none; stroke-linecap: butt; stroke-linejoin: miter; stroke-miterlimit: 10; fill: rgb(0,87,226); fill-rule: nonzero; opacity: 1;" transform=" matrix(1 0 0 1 0 0) " stroke-linecap="round" />
	<path d="M 62.967 27.033 c -5.362 -5.362 -14.057 -5.362 -19.419 0 c -4.287 4.287 -5.143 10.702 -2.575 15.844 L 23.479 60.37 l -0.468 6.619 l 6.619 -0.468 l 2.009 -2.009 l 0.709 -4.792 l 4.784 -0.709 l 0.709 -4.784 l 4.792 -0.709 l 4.491 -4.491 c 5.141 2.568 11.557 1.712 15.844 -2.575 C 68.329 41.09 68.329 32.396 62.967 27.033 z M 58.763 36.237 c -1.381 1.381 -3.619 1.381 -5 0 c -1.381 -1.381 -1.381 -3.619 0 -5 c 1.381 -1.381 3.619 -1.381 5 0 C 60.143 32.618 60.143 34.856 58.763 36.237 z" style="stroke: none; stroke-width: 1; stroke-dasharray: none; stroke-linecap: butt; stroke-linejoin: miter; stroke-miterlimit: 10; fill: rgb(255,255,255); fill-rule: nonzero; opacity: 1;" transform=" matrix(1 0 0 1 0 0) " stroke-linecap="round" />
</g>
</g>
</svg>