<svg width="44" height="40" viewBox="0 0 44 40" fill="none" xmlns="http://www.w3.org/2000/svg">
<path fill-rule="evenodd" clip-rule="evenodd" d="M20.3765 0.0219949C19.3911 0.0505592 18.4918 0.123412 18.3591 0.18559C18.283 0.221223 18.0051 0.260752 17.7326 0.274746C17.4395 0.289605 17.1186 0.337212 16.9326 0.393187C16.762 0.444545 16.5543 0.48667 16.4711 0.48667C16.3879 0.48667 16.164 0.530237 15.9735 0.58376C14.9927 0.858871 14.5457 0.994047 14.4222 1.05276C14.3472 1.08854 14.2352 1.11783 14.1731 1.11797C14.1112 1.11797 13.9945 1.15505 13.9137 1.2002C13.833 1.24536 13.6602 1.30696 13.5297 1.33696C13.3993 1.36711 13.2389 1.4241 13.1732 1.46363C13.0869 1.51571 12.9892 1.52869 12.8201 1.51022C12.5511 1.48094 12.4477 1.52148 12.4853 1.64179C12.5127 1.72951 12.4256 1.77654 11.6629 2.08555C11.502 2.15061 11.3328 2.2353 11.2867 2.27367C11.0486 2.47218 10.4628 2.70733 10.3746 2.63996C10.3122 2.59221 10.3058 2.59769 10.3326 2.67501C10.3633 2.76417 9.59341 3.29088 9.1787 3.46443C8.91282 3.5758 8.97189 4.06269 9.28962 4.37762C9.50129 4.58738 10.5599 5.81579 10.5599 5.85157C10.5599 5.86888 10.6917 6.01286 10.8526 6.17155C11.0137 6.33024 11.1459 6.47263 11.1464 6.48806C11.147 6.5035 11.2631 6.64805 11.4046 6.80934C11.5459 6.97048 11.7057 7.15961 11.7594 7.22944C11.8133 7.29926 11.9398 7.43876 12.0403 7.53946C12.1411 7.64001 12.2236 7.73725 12.224 7.75542C12.2243 7.7736 12.2796 7.84458 12.3466 7.91311C12.5729 8.14422 13.1297 8.78821 13.2038 8.90435C13.2442 8.96768 13.3401 9.08266 13.417 9.15984C13.494 9.23702 13.5939 9.35431 13.6393 9.42052C13.6846 9.48674 13.8834 9.69967 14.0812 9.89385C14.2789 10.088 14.4926 10.318 14.556 10.4048C14.6197 10.4915 14.7096 10.6133 14.756 10.6753C14.899 10.8662 15.2688 11.3084 15.6152 11.7026C15.7969 11.9095 15.9456 12.0985 15.9456 12.1224C15.9456 12.1464 16.0281 12.241 16.1292 12.3328C16.3116 12.4987 16.3399 12.5314 16.5903 12.867C16.6622 12.9632 16.7944 13.1196 16.8841 13.2142C17.2629 13.614 18.0763 14.5628 18.1522 14.6932C18.1818 14.7443 18.1931 14.8338 18.1772 14.8919C18.1442 15.0132 18.2357 15.0907 18.302 14.9976C18.3367 14.9489 18.375 14.9669 18.4801 15.082C18.5537 15.1625 18.7901 15.4024 19.0056 15.6152C19.221 15.828 19.4743 16.1183 19.5687 16.2605C19.7408 16.5202 19.7703 16.5576 20.1946 17.054C20.3517 17.2378 20.4258 17.3673 20.4268 17.4596C20.4279 17.5725 20.4463 17.5937 20.5358 17.5849C20.6495 17.5738 20.8611 17.7835 21.4005 18.4427C21.5468 18.6214 21.7906 18.9072 21.9421 19.0779C22.0936 19.2484 22.2307 19.4489 22.247 19.5233C22.2644 19.6034 22.3142 19.6678 22.3689 19.681C22.4201 19.6933 22.4555 19.7359 22.4483 19.7764C22.4298 19.8805 22.4972 19.9623 22.6015 19.9623C22.6887 19.9623 22.9268 20.2108 23.4904 20.8894C23.6357 21.0647 23.9256 21.395 24.1343 21.6237C24.343 21.8524 24.5137 22.0641 24.5137 22.0943C24.5137 22.1244 24.581 22.2075 24.6632 22.2789C24.7697 22.3717 24.8084 22.4428 24.7978 22.5268C24.7853 22.6265 24.8042 22.647 24.9202 22.6592C25.0168 22.6693 25.0715 22.7093 25.1053 22.7944C25.1317 22.8609 25.2048 22.9558 25.2678 23.0053C25.4196 23.1249 26.0314 23.8298 26.0314 23.8852C26.0314 23.9247 26.1372 24.0423 26.7199 24.6509C27.0909 25.0381 27.2065 25.1815 27.2065 25.2541C27.2065 25.2942 27.2366 25.3271 27.2734 25.3271C27.3323 25.3271 27.5982 25.6425 27.5982 25.7124C27.5982 25.727 27.6698 25.8071 27.7574 25.8903C27.9612 26.0843 28.1472 26.2945 28.5316 26.7654C28.7016 26.9739 28.8945 27.1971 28.9598 27.2614C29.0252 27.3257 29.1359 27.4494 29.2058 27.5362C29.2757 27.6229 29.4162 27.7797 29.518 27.8845C29.62 27.9894 29.7036 28.0945 29.7036 28.1183C29.7036 28.1421 29.7794 28.2288 29.8723 28.3109C29.965 28.3932 30.1139 28.5539 30.2027 28.6681C30.6489 29.2413 30.7047 29.2968 30.8842 29.3463C31.1301 29.4141 31.3107 29.3653 31.3738 29.2142C31.4431 29.048 31.4339 13.5385 31.3644 13.419C31.2863 13.2844 28.5772 13.2903 28.4306 13.4253C28.3339 13.5142 28.3327 13.5756 28.3327 17.7082C28.3327 20.0141 28.3161 21.8998 28.2958 21.8985C28.2628 21.8965 28.1107 21.7248 27.3047 20.7793C27.1698 20.6212 27.0597 20.4651 27.0597 20.4325C27.0597 20.3998 27.0168 20.3455 26.9644 20.3118C26.8289 20.2243 26.1784 19.4668 26.1784 19.3964C26.1784 19.3641 26.1287 19.3005 26.0681 19.255C25.798 19.0526 25.3673 18.5151 25.4293 18.458C25.4463 18.4422 25.4181 18.4287 25.3664 18.4275C25.265 18.4255 24.9054 18.0305 24.9054 17.9213C24.9054 17.8851 24.9495 17.804 25.0033 17.741C25.1796 17.5344 25.1115 17.4591 24.892 17.6181C24.7163 17.7453 24.6914 17.7365 24.4812 17.4725C24.3779 17.3429 24.2162 17.1532 24.1221 17.0508C23.5634 16.4445 23.559 16.4381 23.559 16.2474C23.559 16.0723 23.5508 16.0619 23.401 16.0486C23.1684 16.028 22.409 15.1849 22.4085 14.9469C22.4084 14.8485 22.3856 14.8228 22.2982 14.8228C22.1892 14.8226 22.1632 14.7951 21.2941 13.7565C20.891 13.275 20.5758 12.913 20.4744 12.8156C20.4206 12.7638 20.3154 12.636 20.2406 12.5316C20.1657 12.4271 20.0003 12.2356 19.8729 12.1057C19.7454 11.976 19.4515 11.6367 19.2197 11.3515C18.9879 11.0663 18.7511 10.7944 18.6938 10.7472C18.6364 10.7 18.5894 10.6233 18.5894 10.5767C18.5894 10.5302 18.5562 10.4804 18.5157 10.466C18.4751 10.4517 18.3096 10.285 18.1481 10.0955C17.9866 9.90612 17.7997 9.69015 17.7329 9.61586C17.4439 9.29386 17.1206 8.90319 17.1206 8.87578C17.1206 8.85948 16.953 8.67439 16.7482 8.46448C16.5433 8.25472 16.3459 8.01957 16.3094 7.94196C16.2729 7.86434 16.2138 7.79063 16.1782 7.77807C16.1427 7.76552 16.0482 7.6667 15.9683 7.55865C15.8886 7.45074 15.7295 7.27113 15.6152 7.1599C15.5006 7.04853 15.4071 6.94307 15.4071 6.92533C15.4071 6.90758 15.2968 6.77111 15.1622 6.62209C15.0276 6.4732 14.9175 6.33356 14.9175 6.31192C14.9175 6.29028 14.8125 6.1727 14.6844 6.05065C14.4562 5.83354 14.3635 5.72606 14.1938 5.48269C14.1474 5.41618 13.9829 5.23138 13.828 5.07197C13.6732 4.91241 13.5464 4.76714 13.5466 4.74881C13.5466 4.73064 13.501 4.65677 13.4452 4.58478C13.3802 4.50082 13.3658 4.45394 13.4047 4.45394C13.4595 4.45394 13.922 4.26625 14.232 4.11823C14.2993 4.08606 14.4425 4.03384 14.5502 4.00196C14.6579 3.97022 14.7901 3.91915 14.844 3.88828C14.8979 3.85755 15.1732 3.7658 15.456 3.68443C15.7388 3.60307 16.0156 3.50973 16.0712 3.47698C16.1267 3.44438 16.281 3.40441 16.4139 3.38826C16.5467 3.37224 16.7326 3.3242 16.8269 3.28165C16.9212 3.23909 17.1524 3.19148 17.3409 3.17604C17.5294 3.16046 17.8048 3.10896 17.953 3.06164C18.1188 3.00855 18.4387 2.96354 18.7853 2.94464C19.095 2.92762 19.4873 2.88492 19.6573 2.84972C20.0898 2.76027 22.4607 2.75984 22.9315 2.849C23.115 2.88391 23.4524 2.92603 23.6813 2.94291C23.9102 2.95965 24.2767 3.0123 24.4959 3.05991C24.7149 3.10752 24.9426 3.14647 25.0018 3.14647C25.0608 3.14647 25.2672 3.19523 25.4602 3.25496C25.6532 3.31454 25.8959 3.37672 25.9996 3.39302C26.1034 3.40932 26.2575 3.45015 26.3424 3.48362C26.4272 3.51708 26.6501 3.58806 26.8378 3.64144C27.0255 3.69482 27.3116 3.79797 27.4736 3.87068C27.6355 3.94353 27.8078 4.00311 27.8565 4.00311C28.0046 4.00311 29.4059 4.61926 30.078 4.97992C30.3244 5.11207 30.5416 5.22027 30.5606 5.22027C30.5795 5.22027 30.6605 5.27105 30.7406 5.33294C30.8206 5.39497 30.914 5.44575 30.9482 5.44575C30.9823 5.44575 31.0522 5.48903 31.1034 5.54212C31.1548 5.59507 31.2629 5.66446 31.3436 5.69605C31.4245 5.72779 31.6262 5.86701 31.792 6.0055C31.9578 6.14385 32.1088 6.25724 32.1276 6.25724C32.242 6.25724 32.9733 6.86503 33.0362 7.01232C33.062 7.0732 33.1209 7.11374 33.1834 7.11374C33.2889 7.11374 34.5017 8.20308 34.5017 8.29786C34.5017 8.32296 34.4639 8.36898 34.4177 8.4C34.3447 8.44919 34.3428 8.46636 34.4034 8.53359C34.4685 8.60572 34.4785 8.60456 34.5576 8.5144C34.6421 8.41846 34.6428 8.4189 34.8902 8.69256C35.0265 8.84332 35.1384 8.98095 35.1387 8.99826C35.139 9.01557 35.2275 9.11728 35.3355 9.22418C35.4433 9.33122 35.6419 9.5645 35.777 9.74267C36.3545 10.5052 36.3326 10.4973 36.7799 10.1079C37.1977 9.74425 37.713 9.38287 38.1296 9.16114C38.3019 9.06938 38.4815 8.96364 38.5287 8.92613C38.6576 8.82356 38.6321 8.33104 38.4978 8.33104C38.4196 8.33104 37.9722 7.75369 37.9126 7.57582C37.8855 7.49532 37.8355 7.42939 37.8012 7.42939C37.7671 7.42939 37.6679 7.33807 37.5808 7.22641C37.4938 7.11489 37.4083 7.02357 37.3907 7.02357C37.3732 7.02357 37.2417 6.88912 37.0987 6.72466C36.7597 6.335 36.4053 5.98314 35.7787 5.41402C35.2979 4.97733 35.2719 4.94444 35.3244 4.8384C35.3825 4.72083 35.297 4.63412 35.1226 4.63427C35.0836 4.63427 35.04 4.59359 35.0259 4.5441C34.9968 4.44095 34.8443 4.42018 34.8443 4.51929C34.8443 4.55521 34.8829 4.60527 34.93 4.63052C34.9841 4.65966 34.9917 4.67697 34.9509 4.67783C34.9153 4.6787 34.75 4.57238 34.5836 4.44182C34.4174 4.31126 34.2286 4.16411 34.1642 4.11492C34.0997 4.06587 33.9392 3.93935 33.8076 3.83403C33.6758 3.72858 33.5381 3.64245 33.5015 3.64245C33.465 3.64245 33.4227 3.61288 33.4076 3.57681C33.3926 3.54074 33.2892 3.46457 33.1778 3.40773C32.8272 3.22841 32.7203 3.16926 32.5005 3.03207C32.2041 2.84698 31.8125 2.6238 31.6374 2.53998C31.5567 2.50118 31.4024 2.42039 31.2947 2.36023C31.1869 2.30022 31.0328 2.22001 30.9519 2.18206C30.8712 2.14427 30.6419 2.03116 30.4423 1.93104C30.2428 1.83092 30.0346 1.74898 29.9796 1.74898C29.9019 1.74898 29.8928 1.73686 29.9386 1.69474C30.0435 1.59808 29.8222 1.43348 29.689 1.50921C29.592 1.56447 29.3535 1.52479 29.2257 1.43218C29.158 1.38327 29.0449 1.34317 28.9742 1.34317C28.9037 1.34317 28.7424 1.29239 28.6159 1.2305C28.4895 1.16846 28.34 1.11783 28.2839 1.11783C28.2277 1.11783 28.1 1.07988 28.0002 1.03372C27.9002 0.987411 27.7326 0.935188 27.6278 0.917732C27.5228 0.900131 27.3901 0.857428 27.3326 0.822805C27.2753 0.788182 27.0857 0.730332 26.9115 0.694266C26.7371 0.6582 26.5063 0.597465 26.3987 0.559523C26.2909 0.521582 26.1126 0.489699 26.0025 0.488545C25.8922 0.487535 25.6719 0.444977 25.5128 0.394196C25.3537 0.343271 25.0362 0.290903 24.8075 0.277775C24.5786 0.264502 24.292 0.223388 24.1709 0.186456C23.9541 0.120239 21.6848 -0.0158032 21.0865 0.00150854C20.9383 0.0056922 20.6188 0.014926 20.3765 0.0219949ZM12.5183 1.18274C12.5183 1.2719 12.5981 1.30955 12.7147 1.27536C12.8696 1.23006 12.8345 1.11783 12.6653 1.11783C12.5701 1.11783 12.5183 1.14062 12.5183 1.18274ZM9.80085 2.83125C9.78408 2.85621 9.80571 2.8891 9.84895 2.90439C9.94279 2.93758 9.99497 2.90108 9.95 2.83385C9.90927 2.77326 9.84049 2.7721 9.80085 2.83125ZM34.1673 3.85235C34.1769 3.89809 34.2175 3.93545 34.2574 3.93545C34.3624 3.93545 34.3472 3.80446 34.24 3.78542C34.1747 3.77388 34.1548 3.7922 34.1673 3.85235ZM8.67405 4.04956C8.65494 4.07784 8.66246 4.12227 8.69066 4.14824C8.75646 4.20883 8.90985 4.15589 8.88305 4.08188C8.85579 4.00657 8.71729 3.98508 8.67405 4.04956ZM36.1898 4.86105C36.1707 4.88933 36.176 4.93174 36.2014 4.95511C36.261 5.00993 36.4211 4.95482 36.3968 4.88788C36.3713 4.81691 36.2315 4.79887 36.1898 4.86105ZM7.25506 5.45023C6.7523 5.81377 6.68775 5.86787 5.88072 6.60016C5.1431 7.26954 4.47019 7.9861 3.96225 8.64323C2.02608 11.1482 0.93736 13.4914 0.305652 16.5134C-0.121126 18.5545 -0.0988787 21.4742 0.359235 23.569C0.399813 23.7549 0.462953 24.0426 0.499458 24.2083C0.85636 25.8287 1.98974 28.5003 2.92774 29.9323C4.91467 32.9659 7.29141 35.235 10.3359 37.0051C10.684 37.2074 11.0035 37.3844 11.0459 37.3984C11.0882 37.4124 11.178 37.4584 11.2454 37.5007C12.4294 38.2442 15.3534 39.2607 17.3165 39.6114C19.3465 39.9741 19.6558 40.0017 21.674 39.9999C24.2305 39.9978 25.7131 39.7907 28.0389 39.1113C28.5092 38.9738 29.9278 38.4693 30.0203 38.4064C30.0481 38.3876 30.2138 38.3146 30.389 38.2442C30.564 38.174 30.7953 38.0646 30.903 38.0014C31.0107 37.9383 31.2311 37.8283 31.3926 37.7572C31.5542 37.6862 31.7195 37.6014 31.7599 37.5688C31.8002 37.5363 31.956 37.4499 32.1061 37.3769C32.2562 37.3039 32.4876 37.1748 32.6203 37.0901C32.7529 37.0053 32.9121 36.9114 32.9738 36.8811C33.3337 36.7057 34.0121 36.1798 34.0121 36.0764C34.0121 35.9636 33.831 35.7324 32.7635 34.4831C32.4403 34.105 32.069 33.6703 31.9383 33.5173C31.8077 33.3644 31.6424 33.1679 31.5711 33.081C31.4998 32.994 31.2543 32.7028 31.0254 32.4338C30.7965 32.1649 30.4382 31.7391 30.2292 31.4875C29.8416 31.0209 29.683 30.8751 29.5619 30.8732C29.471 30.8719 29.0673 31.0517 28.9446 31.1482C28.3275 31.6332 26.6487 31.5245 25.6398 30.9342C25.429 30.8109 24.9543 30.4056 24.9543 30.3489C24.9543 30.3263 24.8998 30.2699 24.8332 30.2239C24.6798 30.1178 23.7603 29.2596 23.7385 29.202C23.7294 29.1785 23.7025 29.159 23.6785 29.159C23.6459 29.159 22.84 28.4281 22.4701 28.0629C22.4496 28.0426 21.849 27.4948 21.1354 26.8456C20.4217 26.1964 19.6871 25.5181 19.5029 25.3384C19.3186 25.1586 19.1492 25.0116 19.1267 25.0116C19.1041 25.0116 19.0717 24.9709 19.0546 24.9214C19.0375 24.8718 19.001 24.8313 18.9738 24.8313C18.9134 24.8313 18.0405 24.0257 17.9255 23.864C17.8805 23.8008 17.826 23.7493 17.8044 23.7493C17.7826 23.7493 17.5131 23.5159 17.2056 23.2308C16.8978 22.9456 16.6309 22.7123 16.6121 22.7123C16.5801 22.7123 16.5253 22.6806 16.1317 22.4337C14.7187 21.5484 13.0509 21.5568 11.2209 22.4584L11.074 22.5307L11.061 19.0712C11.0464 15.2078 11.0535 15.1337 11.4752 14.7407C11.5103 14.708 11.5391 14.6537 11.5391 14.6202C11.5391 14.3663 12.8508 13.4718 13.2257 13.4699C13.281 13.4696 13.4344 13.4391 13.5665 13.4022C13.8394 13.326 14.3119 13.3139 14.4964 13.3786C14.5777 13.407 14.6306 13.4063 14.6507 13.3764C14.6825 13.3289 14.3398 12.659 14.2837 12.659C14.2662 12.659 14.0766 12.4525 13.8625 12.2002C13.6483 11.9479 13.4059 11.6689 13.3237 11.5803C13.2416 11.4916 12.8019 10.9728 12.3468 10.4273C11.8915 9.88188 11.283 9.16157 10.9944 8.82688C10.7056 8.49218 10.0988 7.78009 9.64574 7.24473C8.01414 5.31664 7.84901 5.1301 7.77287 5.13082C7.73041 5.13111 7.49744 5.27495 7.25506 5.45023ZM9.55738 6.12033C9.52526 6.16808 9.69838 6.34741 9.77656 6.34741C9.84472 6.34741 9.83798 6.19651 9.76685 6.13101C9.69603 6.0658 9.59733 6.06075 9.55738 6.12033ZM23.7485 6.9953C21.0777 7.84905 21.3107 11.3844 24.073 11.92C25.9359 12.2814 27.8117 10.5511 27.3041 8.93955C27.2729 8.84044 27.2225 8.67814 27.1921 8.57889C26.817 7.3548 25.0974 6.56409 23.7485 6.9953ZM31.9557 7.18284C31.9557 7.26074 32.0725 7.31643 32.147 7.27401C32.2235 7.23045 32.1517 7.11374 32.0483 7.11374C31.9974 7.11374 31.9557 7.14475 31.9557 7.18284ZM32.6412 7.20131C32.6412 7.26954 32.7322 7.30215 32.8373 7.27142C32.9848 7.22828 32.9542 7.15889 32.788 7.15889C32.7071 7.15889 32.6412 7.17794 32.6412 7.20131ZM18.2957 9.3934C18.2957 9.4765 18.4112 9.59335 18.4932 9.59335C18.6108 9.59335 18.6258 9.43538 18.512 9.39528C18.4146 9.3608 18.2957 9.35979 18.2957 9.3934ZM18.5894 9.70602C18.623 9.74324 18.6697 9.77368 18.6933 9.77368C18.717 9.77368 18.7364 9.74324 18.7364 9.70602C18.7364 9.66707 18.6921 9.63836 18.6324 9.63836C18.5456 9.63836 18.5385 9.64947 18.5894 9.70602ZM18.8216 10.0479C18.7091 10.1082 18.7933 10.2695 18.9371 10.2695C19.0162 10.2695 19.0335 10.2447 19.0211 10.1491C19.0034 10.0114 18.9453 9.98186 18.8216 10.0479ZM20.357 11.098C20.2765 11.1873 20.3716 11.3967 20.4924 11.3967C20.5441 11.3967 20.5997 11.3645 20.616 11.3252C20.6955 11.1348 20.4879 10.9528 20.357 11.098ZM22.2417 14.2749C22.2247 14.3001 22.2348 14.3343 22.2639 14.3509C22.3393 14.3937 22.3878 14.335 22.325 14.2772C22.2898 14.2449 22.2623 14.244 22.2417 14.2749ZM43.6694 15.4349C43.3481 15.7892 43.323 15.9166 43.6096 15.7402C43.8676 15.5812 44 15.4365 44 15.313C44 15.113 43.9419 15.1345 43.6694 15.4349ZM23.5834 21.991C23.5834 22.041 23.616 22.0812 23.6569 22.0812C23.6976 22.0812 23.7304 22.041 23.7304 21.991C23.7304 21.9409 23.6976 21.9008 23.6569 21.9008C23.616 21.9008 23.5834 21.9409 23.5834 21.991ZM15.2846 25.5031C16.0574 25.8219 16.3048 25.9741 16.6981 26.3729C17.005 26.684 17.4634 27.4184 17.4634 27.5988C17.4634 27.6356 17.507 27.834 17.5604 28.0397C17.6576 28.4145 17.6298 28.9134 17.5045 29.0442C17.4818 29.0677 17.4634 29.1325 17.4634 29.188C17.4634 29.2436 17.4413 29.3016 17.4144 29.3169C17.3874 29.3322 17.3655 29.4013 17.3655 29.4704C17.3655 29.5395 17.3226 29.6317 17.2703 29.6752C17.2179 29.7188 17.1617 29.8107 17.1454 29.8795C17.1289 29.9482 17.0616 30.051 16.9958 30.108C16.9298 30.1651 16.8759 30.2353 16.8759 30.2641C16.8759 30.3085 16.3562 30.7843 16.1305 30.9465C15.5609 31.3556 14.3575 31.6087 13.7178 31.4539C13.6102 31.4277 13.4216 31.3826 13.2987 31.3535C13.1759 31.3243 13.017 31.265 12.9454 31.2216C12.874 31.1783 12.7964 31.1428 12.7729 31.1428C12.6866 31.1428 12.1636 30.7748 11.91 30.5356C11.6704 30.3097 11.5897 30.2068 11.3433 29.8129C11.2968 29.7384 11.2078 29.5989 11.1456 29.5027C10.9787 29.2449 10.9717 27.6646 11.136 27.3784C11.1929 27.2791 11.2745 27.1271 11.3173 27.0402C11.4226 26.8263 11.5761 26.5799 11.6239 26.548C11.6455 26.5336 11.7265 26.4508 11.8039 26.3641C12.1068 26.0252 12.8203 25.6143 13.4213 25.4327C13.7597 25.3306 14.9777 25.3764 15.2846 25.5031ZM27.1405 26.0823C27.1053 26.135 27.2189 26.3329 27.28 26.3251C27.3654 26.3143 27.3365 26.0735 27.2479 26.0578C27.2032 26.0499 27.1549 26.061 27.1405 26.0823ZM29.6327 28.7493C29.5859 28.819 29.6603 28.9337 29.7524 28.9337C29.8466 28.9337 29.898 28.8555 29.8635 28.7646C29.8389 28.6996 29.6735 28.6886 29.6327 28.7493ZM32.8246 32.6335C32.7179 32.6915 32.7139 32.8257 32.8165 32.9041C32.928 32.9893 33.0573 32.9005 33.0573 32.7388C33.0573 32.5973 32.9667 32.5563 32.8246 32.6335ZM33.0659 33.0993C33.0501 33.1374 33.0567 33.1797 33.0805 33.1933C33.1446 33.2298 33.1988 33.126 33.1427 33.0744C33.1114 33.0455 33.0847 33.0542 33.0659 33.0993Z" fill="#850EFF"/>
</svg>
